<svg xmlns="http://www.w3.org/2000/svg" width="1600" height="1000" viewBox="0 0 1600 1000" fill="none">
  <defs>
    <linearGradient id="bg" x1="0" y1="0" x2="1600" y2="1000" gradientUnits="userSpaceOnUse">
      <stop stop-color="#0B0C10" />
      <stop offset="1" stop-color="#151A2A" />
    </linearGradient>
    <linearGradient id="panel" x1="0" y1="0" x2="0" y2="1">
      <stop stop-color="#141826" />
      <stop offset="1" stop-color="#0F1119" />
    </linearGradient>
    <linearGradient id="panelStrong" x1="0" y1="0" x2="0" y2="1">
      <stop stop-color="#1A1F32" />
      <stop offset="1" stop-color="#121525" />
    </linearGradient>
    <linearGradient id="dish" x1="0" y1="0" x2="1" y2="1">
      <stop stop-color="#FDBA74" />
      <stop offset="0.45" stop-color="#F97316" />
      <stop offset="1" stop-color="#9A3412" />
    </linearGradient>
    <filter id="shadowLg" x="-40%" y="-40%" width="180%" height="180%" color-interpolation-filters="sRGB">
      <feDropShadow dx="0" dy="26" stdDeviation="26" flood-color="#000000" flood-opacity="0.55" />
    </filter>
    <filter id="shadowSm" x="-40%" y="-40%" width="180%" height="180%" color-interpolation-filters="sRGB">
      <feDropShadow dx="0" dy="14" stdDeviation="14" flood-color="#000000" flood-opacity="0.4" />
    </filter>
  </defs>

  <rect width="1600" height="1000" fill="url(#bg)" />

  <circle cx="330" cy="210" r="260" fill="#F97316" opacity="0.12" />
  <circle cx="1250" cy="180" r="320" fill="#38BDF8" opacity="0.08" />
  <circle cx="980" cy="920" r="360" fill="#34D399" opacity="0.06" />

  <!-- Editor window -->
  <g filter="url(#shadowLg)">
    <rect x="90" y="130" width="980" height="740" rx="54" fill="url(#panel)" stroke="#2A2F45" />
    <rect x="90" y="130" width="980" height="84" rx="54" fill="url(#panelStrong)" />
    <circle cx="135" cy="172" r="7" fill="#22C55E" opacity="0.9" />
    <circle cx="160" cy="172" r="7" fill="#F59E0B" opacity="0.85" />
    <circle cx="185" cy="172" r="7" fill="#EF4444" opacity="0.85" />
    <rect x="720" y="154" width="318" height="36" rx="18" fill="#0B0C10" opacity="0.55" />
    <rect x="736" y="166" width="96" height="12" rx="6" fill="#E5E7EB" opacity="0.55" />

    <!-- Sidebar -->
    <rect x="90" y="214" width="270" height="656" rx="0" fill="#0E1018" opacity="0.95" />
    <rect x="118" y="250" width="208" height="36" rx="18" fill="#1B2032" />
    <rect x="118" y="302" width="208" height="36" rx="18" fill="#1B2032" opacity="0.85" />
    <rect x="118" y="354" width="208" height="36" rx="18" fill="#1B2032" opacity="0.85" />
    <rect x="118" y="406" width="208" height="36" rx="18" fill="#F97316" opacity="0.95" />
    <rect x="136" y="418" width="120" height="12" rx="6" fill="#0B0C10" opacity="0.65" />
    <rect x="118" y="458" width="208" height="36" rx="18" fill="#1B2032" opacity="0.85" />

    <rect x="118" y="820" width="208" height="34" rx="17" fill="#1B2032" opacity="0.72" />
    <rect x="136" y="832" width="90" height="10" rx="5" fill="#E5E7EB" opacity="0.55" />

    <!-- Main content cards -->
    <rect x="392" y="250" width="642" height="60" rx="20" fill="#1B2032" opacity="0.9" />
    <rect x="414" y="272" width="220" height="14" rx="7" fill="#E5E7EB" opacity="0.7" />
    <rect x="914" y="268" width="96" height="22" rx="11" fill="#0B0C10" opacity="0.5" />
    <rect x="930" y="275" width="58" height="8" rx="4" fill="#FDBA74" opacity="0.9" />

    <g opacity="0.95">
      <rect x="392" y="336" width="642" height="116" rx="26" fill="#121525" stroke="#2A2F45" />
      <rect x="418" y="364" width="260" height="14" rx="7" fill="#E5E7EB" opacity="0.7" />
      <rect x="418" y="388" width="380" height="12" rx="6" fill="#E5E7EB" opacity="0.45" />
      <rect x="418" y="416" width="120" height="26" rx="13" fill="#1B2032" />
      <rect x="548" y="416" width="140" height="26" rx="13" fill="#1B2032" opacity="0.8" />
      <rect x="902" y="372" width="106" height="28" rx="14" fill="#F97316" opacity="0.95" />
      <rect x="922" y="382" width="66" height="8" rx="4" fill="#0B0C10" opacity="0.65" />
    </g>

    <g opacity="0.92">
      <rect x="392" y="476" width="642" height="116" rx="26" fill="#121525" stroke="#2A2F45" />
      <rect x="418" y="504" width="300" height="14" rx="7" fill="#E5E7EB" opacity="0.66" />
      <rect x="418" y="528" width="410" height="12" rx="6" fill="#E5E7EB" opacity="0.42" />
      <rect x="902" y="512" width="94" height="28" rx="14" fill="#22C55E" opacity="0.22" />
      <rect x="922" y="522" width="54" height="8" rx="4" fill="#86EFAC" opacity="0.9" />
    </g>

    <g opacity="0.9">
      <rect x="392" y="616" width="642" height="116" rx="26" fill="#121525" stroke="#2A2F45" />
      <rect x="418" y="644" width="240" height="14" rx="7" fill="#E5E7EB" opacity="0.62" />
      <rect x="418" y="668" width="360" height="12" rx="6" fill="#E5E7EB" opacity="0.38" />
      <rect x="902" y="652" width="112" height="28" rx="14" fill="#38BDF8" opacity="0.16" />
      <rect x="922" y="662" width="72" height="8" rx="4" fill="#7DD3FC" opacity="0.85" />
    </g>
  </g>

  <!-- AR phone -->
  <g filter="url(#shadowSm)">
    <rect x="1090" y="168" width="440" height="764" rx="92" fill="#0B0C10" stroke="#2A2F45" />
    <rect x="1120" y="210" width="380" height="680" rx="72" fill="#111218" stroke="#2A2F45" />

    <rect x="1180" y="242" width="260" height="40" rx="20" fill="#1B2032" opacity="0.95" />
    <rect x="1200" y="257" width="140" height="10" rx="5" fill="#E5E7EB" opacity="0.72" />
    <rect x="1360" y="252" width="64" height="20" rx="10" fill="#F97316" opacity="0.95" />
    <rect x="1376" y="259" width="32" height="6" rx="3" fill="#0B0C10" opacity="0.65" />

    <circle cx="1310" cy="560" r="170" fill="url(#dish)" />
    <circle cx="1265" cy="520" r="60" fill="#FFFFFF" opacity="0.14" />
    <circle cx="1368" cy="620" r="78" fill="#000000" opacity="0.08" />

    <rect x="1180" y="770" width="260" height="54" rx="27" fill="#F97316" opacity="0.98" />
    <rect x="1250" y="790" width="120" height="10" rx="5" fill="#0B0C10" opacity="0.65" />

    <rect x="1148" y="680" width="130" height="28" rx="14" fill="#22C55E" opacity="0.18" />
    <rect x="1162" y="690" width="84" height="8" rx="4" fill="#86EFAC" opacity="0.9" />
  </g>
</svg>

