<svg width="1024" height="1024" viewBox="0 0 1024 1024" fill="none" xmlns="http://www.w3.org/2000/svg">
  <rect width="1024" height="1024" rx="36" fill="#0F1015" />

  <g fill="#E6C772">
    <rect x="60" y="60" width="190" height="190" rx="14" />
    <rect x="774" y="60" width="190" height="190" rx="14" />
    <rect x="60" y="774" width="190" height="190" rx="14" />
  </g>
  <g fill="#0F1015">
    <rect x="88" y="88" width="134" height="134" rx="8" />
    <rect x="802" y="88" width="134" height="134" rx="8" />
    <rect x="88" y="802" width="134" height="134" rx="8" />
  </g>
  <g fill="#E6C772">
    <rect x="116" y="116" width="78" height="78" rx="6" />
    <rect x="830" y="116" width="78" height="78" rx="6" />
    <rect x="116" y="830" width="78" height="78" rx="6" />
  </g>
  <g stroke="#F4E0A8" stroke-width="8">
    <rect x="72" y="72" width="166" height="166" rx="12" />
    <rect x="786" y="72" width="166" height="166" rx="12" />
    <rect x="72" y="786" width="166" height="166" rx="12" />
  </g>

  <g fill="#E6C772">
    <rect x="292" y="92" width="56" height="56" rx="8" />
    <rect x="370" y="92" width="56" height="56" rx="8" />
    <rect x="526" y="92" width="56" height="56" rx="8" />
    <rect x="604" y="92" width="56" height="56" rx="8" />
    <rect x="682" y="92" width="56" height="56" rx="8" />
    <rect x="292" y="170" width="56" height="56" rx="8" />
    <rect x="448" y="170" width="56" height="56" rx="8" />
    <rect x="526" y="170" width="56" height="56" rx="8" />
    <rect x="682" y="170" width="56" height="56" rx="8" />
    <rect x="292" y="248" width="56" height="56" rx="8" />
    <rect x="370" y="248" width="56" height="56" rx="8" />
    <rect x="448" y="248" width="56" height="56" rx="8" />
    <rect x="604" y="248" width="56" height="56" rx="8" />
    <rect x="682" y="248" width="56" height="56" rx="8" />
    <rect x="248" y="370" width="56" height="56" rx="8" />
    <rect x="682" y="370" width="56" height="56" rx="8" />
    <rect x="248" y="448" width="56" height="56" rx="8" />
    <rect x="682" y="448" width="56" height="56" rx="8" />
    <rect x="248" y="526" width="56" height="56" rx="8" />
    <rect x="682" y="526" width="56" height="56" rx="8" />
    <rect x="248" y="604" width="56" height="56" rx="8" />
    <rect x="682" y="604" width="56" height="56" rx="8" />
    <rect x="292" y="682" width="56" height="56" rx="8" />
    <rect x="370" y="682" width="56" height="56" rx="8" />
    <rect x="526" y="682" width="56" height="56" rx="8" />
    <rect x="604" y="682" width="56" height="56" rx="8" />
    <rect x="682" y="682" width="56" height="56" rx="8" />
    <rect x="292" y="760" width="56" height="56" rx="8" />
    <rect x="448" y="760" width="56" height="56" rx="8" />
    <rect x="526" y="760" width="56" height="56" rx="8" />
    <rect x="604" y="760" width="56" height="56" rx="8" />
    <rect x="682" y="760" width="56" height="56" rx="8" />
    <rect x="292" y="838" width="56" height="56" rx="8" />
    <rect x="370" y="838" width="56" height="56" rx="8" />
    <rect x="526" y="838" width="56" height="56" rx="8" />
    <rect x="604" y="838" width="56" height="56" rx="8" />
    <rect x="682" y="838" width="56" height="56" rx="8" />
  </g>
  <g fill="#6F5323">
    <rect x="448" y="92" width="56" height="56" rx="8" />
    <rect x="604" y="170" width="56" height="56" rx="8" />
    <rect x="526" y="248" width="56" height="56" rx="8" />
    <rect x="370" y="370" width="56" height="56" rx="8" />
    <rect x="526" y="370" width="56" height="56" rx="8" />
    <rect x="370" y="526" width="56" height="56" rx="8" />
    <rect x="526" y="526" width="56" height="56" rx="8" />
    <rect x="448" y="604" width="56" height="56" rx="8" />
    <rect x="370" y="760" width="56" height="56" rx="8" />
    <rect x="448" y="838" width="56" height="56" rx="8" />
  </g>

  <circle cx="512" cy="512" r="204" fill="#0B0B0D" stroke="#E6C772" stroke-width="12" />
  <circle cx="512" cy="512" r="178" stroke="#E6C772" stroke-width="8" opacity="0.78" />
  <text x="512" y="490" fill="#E6C772" font-size="46" font-family="Georgia, serif" text-anchor="middle" font-weight="700">THE</text>
  <text x="512" y="550" fill="#E6C772" font-size="70" font-family="Georgia, serif" text-anchor="middle" font-weight="700">GILDED FORK</text>
</svg>
