<svg xmlns="http://www.w3.org/2000/svg" width="1600" height="1000" viewBox="0 0 1600 1000" fill="none">
  <defs>
    <linearGradient id="bg" x1="0" y1="0" x2="1600" y2="1000" gradientUnits="userSpaceOnUse">
      <stop stop-color="#0B0C10" />
      <stop offset="1" stop-color="#151A2A" />
    </linearGradient>
    <linearGradient id="panel" x1="0" y1="0" x2="0" y2="1">
      <stop stop-color="#141826" />
      <stop offset="1" stop-color="#0F1119" />
    </linearGradient>
    <filter id="shadowLg" x="-40%" y="-40%" width="180%" height="180%" color-interpolation-filters="sRGB">
      <feDropShadow dx="0" dy="26" stdDeviation="26" flood-color="#000000" flood-opacity="0.55" />
    </filter>
    <filter id="shadowSm" x="-40%" y="-40%" width="180%" height="180%" color-interpolation-filters="sRGB">
      <feDropShadow dx="0" dy="16" stdDeviation="16" flood-color="#000000" flood-opacity="0.5" />
    </filter>
  </defs>

  <rect width="1600" height="1000" fill="url(#bg)" />
  <circle cx="380" cy="220" r="260" fill="#F97316" opacity="0.10" />
  <circle cx="1240" cy="820" r="360" fill="#38BDF8" opacity="0.06" />

  <!-- Editor background -->
  <g filter="url(#shadowLg)">
    <rect x="140" y="130" width="1320" height="740" rx="54" fill="url(#panel)" stroke="#2A2F45" />
    <rect x="140" y="130" width="1320" height="84" rx="54" fill="#1A1F32" />
    <circle cx="185" cy="172" r="7" fill="#22C55E" opacity="0.9" />
    <circle cx="210" cy="172" r="7" fill="#F59E0B" opacity="0.85" />
    <circle cx="235" cy="172" r="7" fill="#EF4444" opacity="0.85" />

    <rect x="180" y="260" width="420" height="120" rx="26" fill="#121525" stroke="#2A2F45" />
    <rect x="206" y="290" width="220" height="14" rx="7" fill="#E5E7EB" opacity="0.7" />
    <rect x="206" y="314" width="320" height="12" rx="6" fill="#E5E7EB" opacity="0.4" />
    <rect x="206" y="340" width="110" height="26" rx="13" fill="#1B2032" />

    <rect x="180" y="404" width="420" height="120" rx="26" fill="#121525" stroke="#2A2F45" opacity="0.9" />
    <rect x="206" y="434" width="250" height="14" rx="7" fill="#E5E7EB" opacity="0.62" />
    <rect x="206" y="458" width="330" height="12" rx="6" fill="#E5E7EB" opacity="0.34" />
    <rect x="206" y="484" width="96" height="26" rx="13" fill="#1B2032" opacity="0.85" />

    <rect x="180" y="548" width="420" height="120" rx="26" fill="#121525" stroke="#2A2F45" opacity="0.85" />
    <rect x="206" y="578" width="210" height="14" rx="7" fill="#E5E7EB" opacity="0.55" />
    <rect x="206" y="602" width="300" height="12" rx="6" fill="#E5E7EB" opacity="0.28" />
  </g>

  <!-- Item editor modal -->
  <g filter="url(#shadowSm)">
    <rect x="660" y="220" width="720" height="600" rx="44" fill="#111218" stroke="#2A2F45" />
    <rect x="660" y="220" width="720" height="78" rx="44" fill="#1A1F32" />
    <rect x="700" y="252" width="140" height="12" rx="6" fill="#E5E7EB" opacity="0.7" />
    <rect x="1262" y="244" width="78" height="30" rx="15" fill="#0B0C10" opacity="0.55" />
    <rect x="1284" y="254" width="34" height="10" rx="5" fill="#E5E7EB" opacity="0.5" />

    <!-- Fields in correct order -->
    <rect x="700" y="324" width="640" height="58" rx="18" fill="#121525" stroke="#2A2F45" />
    <rect x="724" y="346" width="220" height="10" rx="5" fill="#E5E7EB" opacity="0.6" />

    <rect x="700" y="402" width="640" height="92" rx="18" fill="#121525" stroke="#2A2F45" opacity="0.92" />
    <rect x="724" y="426" width="360" height="10" rx="5" fill="#E5E7EB" opacity="0.38" />
    <rect x="724" y="448" width="300" height="10" rx="5" fill="#E5E7EB" opacity="0.28" />

    <rect x="700" y="514" width="308" height="66" rx="18" fill="#121525" stroke="#2A2F45" opacity="0.9" />
    <rect x="724" y="540" width="90" height="10" rx="5" fill="#E5E7EB" opacity="0.5" />
    <rect x="1032" y="514" width="308" height="66" rx="18" fill="#121525" stroke="#2A2F45" opacity="0.9" />
    <rect x="1056" y="540" width="120" height="10" rx="5" fill="#E5E7EB" opacity="0.5" />
    <rect x="1236" y="532" width="82" height="30" rx="15" fill="#22C55E" opacity="0.18" />

    <!-- Media blocks -->
    <rect x="700" y="604" width="640" height="120" rx="22" fill="#0F1119" stroke="#2A2F45" />
    <rect x="724" y="634" width="180" height="10" rx="5" fill="#E5E7EB" opacity="0.45" />
    <rect x="724" y="656" width="260" height="10" rx="5" fill="#E5E7EB" opacity="0.28" />
    <rect x="1228" y="636" width="92" height="34" rx="17" fill="#F97316" opacity="0.95" />
    <rect x="1248" y="649" width="52" height="8" rx="4" fill="#0B0C10" opacity="0.65" />

    <rect x="700" y="744" width="640" height="56" rx="18" fill="#F97316" opacity="0.98" />
    <rect x="954" y="765" width="132" height="10" rx="5" fill="#0B0C10" opacity="0.65" />
  </g>
</svg>

