<svg xmlns="http://www.w3.org/2000/svg" width="1600" height="1000" viewBox="0 0 1600 1000" fill="none">
  <defs>
    <linearGradient id="bg" x1="0" y1="0" x2="1600" y2="1000" gradientUnits="userSpaceOnUse">
      <stop stop-color="#0B0C10" />
      <stop offset="1" stop-color="#151A2A" />
    </linearGradient>
    <linearGradient id="panel" x1="0" y1="0" x2="0" y2="1">
      <stop stop-color="#141826" />
      <stop offset="1" stop-color="#0F1119" />
    </linearGradient>
    <filter id="shadowLg" x="-40%" y="-40%" width="180%" height="180%" color-interpolation-filters="sRGB">
      <feDropShadow dx="0" dy="26" stdDeviation="26" flood-color="#000000" flood-opacity="0.55" />
    </filter>
    <filter id="shadowSm" x="-40%" y="-40%" width="180%" height="180%" color-interpolation-filters="sRGB">
      <feDropShadow dx="0" dy="16" stdDeviation="16" flood-color="#000000" flood-opacity="0.45" />
    </filter>
  </defs>

  <rect width="1600" height="1000" fill="url(#bg)" />
  <circle cx="320" cy="740" r="320" fill="#F97316" opacity="0.10" />
  <circle cx="1280" cy="220" r="320" fill="#34D399" opacity="0.07" />

  <!-- Theme studio panel -->
  <g filter="url(#shadowLg)">
    <rect x="140" y="130" width="820" height="740" rx="54" fill="url(#panel)" stroke="#2A2F45" />
    <rect x="140" y="130" width="820" height="84" rx="54" fill="#1A1F32" />
    <rect x="200" y="162" width="160" height="12" rx="6" fill="#E5E7EB" opacity="0.65" />

    <rect x="190" y="260" width="720" height="94" rx="26" fill="#121525" stroke="#2A2F45" />
    <rect x="216" y="292" width="260" height="14" rx="7" fill="#E5E7EB" opacity="0.7" />
    <rect x="216" y="316" width="420" height="12" rx="6" fill="#E5E7EB" opacity="0.38" />

    <!-- Swatches -->
    <rect x="190" y="386" width="350" height="220" rx="30" fill="#121525" stroke="#2A2F45" opacity="0.95" />
    <rect x="216" y="418" width="120" height="12" rx="6" fill="#E5E7EB" opacity="0.5" />
    <circle cx="252" cy="470" r="18" fill="#F97316" />
    <circle cx="306" cy="470" r="18" fill="#38BDF8" />
    <circle cx="360" cy="470" r="18" fill="#34D399" />
    <circle cx="414" cy="470" r="18" fill="#A78BFA" />
    <circle cx="468" cy="470" r="18" fill="#F59E0B" />

    <rect x="216" y="520" width="280" height="54" rx="18" fill="#0F1119" stroke="#2A2F45" />
    <rect x="236" y="542" width="130" height="10" rx="5" fill="#E5E7EB" opacity="0.42" />

    <!-- Typography -->
    <rect x="560" y="386" width="350" height="220" rx="30" fill="#121525" stroke="#2A2F45" opacity="0.95" />
    <rect x="586" y="418" width="150" height="12" rx="6" fill="#E5E7EB" opacity="0.5" />
    <rect x="586" y="458" width="260" height="18" rx="9" fill="#E5E7EB" opacity="0.18" />
    <rect x="586" y="488" width="220" height="14" rx="7" fill="#E5E7EB" opacity="0.13" />
    <rect x="586" y="520" width="280" height="54" rx="18" fill="#0F1119" stroke="#2A2F45" />
    <rect x="606" y="542" width="160" height="10" rx="5" fill="#E5E7EB" opacity="0.42" />

    <rect x="190" y="638" width="720" height="170" rx="34" fill="#121525" stroke="#2A2F45" opacity="0.9" />
    <rect x="216" y="672" width="260" height="14" rx="7" fill="#E5E7EB" opacity="0.6" />
    <rect x="216" y="700" width="420" height="12" rx="6" fill="#E5E7EB" opacity="0.32" />
    <rect x="216" y="730" width="180" height="40" rx="20" fill="#F97316" opacity="0.95" />
    <rect x="264" y="745" width="84" height="10" rx="5" fill="#0B0C10" opacity="0.65" />
  </g>

  <!-- Mobile preview -->
  <g filter="url(#shadowSm)">
    <rect x="1020" y="170" width="440" height="760" rx="92" fill="#0B0C10" stroke="#2A2F45" />
    <rect x="1050" y="214" width="380" height="672" rx="72" fill="#111218" stroke="#2A2F45" />
    <rect x="1106" y="252" width="268" height="40" rx="20" fill="#1B2032" opacity="0.95" />
    <rect x="1126" y="267" width="140" height="10" rx="5" fill="#E5E7EB" opacity="0.62" />
    <rect x="1320" y="262" width="54" height="20" rx="10" fill="#F97316" opacity="0.95" />
    <rect x="1336" y="269" width="22" height="6" rx="3" fill="#0B0C10" opacity="0.65" />

    <rect x="1086" y="320" width="308" height="92" rx="26" fill="#121525" stroke="#2A2F45" opacity="0.92" />
    <rect x="1110" y="350" width="170" height="12" rx="6" fill="#E5E7EB" opacity="0.6" />
    <rect x="1110" y="372" width="220" height="10" rx="5" fill="#E5E7EB" opacity="0.28" />

    <rect x="1086" y="428" width="308" height="92" rx="26" fill="#121525" stroke="#2A2F45" opacity="0.88" />
    <rect x="1110" y="458" width="160" height="12" rx="6" fill="#E5E7EB" opacity="0.55" />
    <rect x="1110" y="480" width="230" height="10" rx="5" fill="#E5E7EB" opacity="0.25" />

    <rect x="1086" y="536" width="308" height="92" rx="26" fill="#121525" stroke="#2A2F45" opacity="0.84" />
    <rect x="1110" y="566" width="150" height="12" rx="6" fill="#E5E7EB" opacity="0.5" />
    <rect x="1110" y="588" width="210" height="10" rx="5" fill="#E5E7EB" opacity="0.22" />
  </g>
</svg>

